<svg version="1.1" viewBox="0.0 0.0 508.1496062992126 321.0524934383202" fill="none" stroke="none" stroke-linecap="square" stroke-miterlimit="10" xmlns:xlink="http://www.w3.org/1999/xlink" xmlns="http://www.w3.org/2000/svg"><clipPath id="p.0"><path d="m0 0l508.1496 0l0 321.0525l-508.1496 0l0 -321.0525z" clip-rule="nonzero"/></clipPath><g clip-path="url(#p.0)"><path fill="#000000" fill-opacity="0.0" d="m0 0l508.1496 0l0 321.0525l-508.1496 0z" fill-rule="evenodd"/><path fill="#cfe2f3" d="m86.632545 83.60105l0 0c0 -5.5634384 4.5100555 -10.073494 10.073494 -10.073494l16.377953 0l0 0l39.677162 0l82.50656 0c2.6716614 0 5.2338867 1.0613098 7.1230316 2.9504623c1.8891449 1.8891449 2.9504547 4.451378 2.9504547 7.1230316l0 25.183723l0 0l0 15.110237l0 0c0 5.5634384 -4.5100555 10.073494 -10.073486 10.073494l-82.50656 0l-57.391693 17.456558l17.71453 -17.456558l-16.377953 0l0 0c-5.5634384 0 -10.073494 -4.5100555 -10.073494 -10.073494l0 0l0 -15.110237l0 0z" fill-rule="evenodd"/><path stroke="#073763" stroke-width="2.0" stroke-linejoin="round" stroke-linecap="butt" d="m86.632545 83.60105l0 0c0 -5.5634384 4.5100555 -10.073494 10.073494 -10.073494l16.377953 0l0 0l39.677162 0l82.50656 0c2.6716614 0 5.2338867 1.0613098 7.1230316 2.9504623c1.8891449 1.8891449 2.9504547 4.451378 2.9504547 7.1230316l0 25.183723l0 0l0 15.110237l0 0c0 5.5634384 -4.5100555 10.073494 -10.073486 10.073494l-82.50656 0l-57.391693 17.456558l17.71453 -17.456558l-16.377953 0l0 0c-5.5634384 0 -10.073494 -4.5100555 -10.073494 -10.073494l0 0l0 -15.110237l0 0z" fill-rule="evenodd"/><path fill="#073763" d="m121.51214 113.768654q-3.328125 0 -5.796875 -1.21875q-2.46875 -1.21875 -3.78125 -3.453125q-1.3125 -2.25 -1.3125 -5.21875q0 -4.109375 1.546875 -7.296875q1.5625 -3.203125 4.21875 -4.953125q2.65625 -1.75 5.90625 -1.75q3.015625 0 4.578125 1.5625q1.5781326 1.546875 1.5781326 4.09375q0 1.71875 -0.6093826 2.75q-0.59375 1.03125 -1.71875 1.03125q-0.78125 0 -1.234375 -0.359375q-0.4375 -0.359375 -0.4375 -1.0625q0 -0.25 0.109375 -0.921875q0.171875 -0.84375 0.171875 -1.34375q0 -2.546875 -2.71875 -2.546875q-1.84375 0 -3.53125 1.203125q-1.671875 1.203125 -2.71875 3.546875q-1.03125 2.328125 -1.03125 5.546875q0 3.359375 1.875 5.203125q1.875 1.828125 5.546875 1.828125q1.8125 0 3.671875 -0.453125q1.875 -0.46875 4.1406326 -1.421875q0.421875 -0.171875 0.703125 -0.171875q0.4375 0 0.65625 0.34375q0.234375 0.328125 0.234375 0.859375q0 1.703125 -1.84375 2.515625q-1.9843826 0.875 -4.1406326 1.28125q-2.140625 0.40625 -4.0625 0.40625zm18.473717 -6.390625q0.359375 0 0.5625 0.34375q0.21875 0.328125 0.21875 0.921875q0 1.125 -0.53125 1.734375q-1.203125 1.484375 -2.625 2.4375q-1.40625 0.953125 -3.1875 0.953125q-2.46875 0 -3.65625 -2.234375q-1.1875 -2.25 -1.1875 -5.796875q0 -3.421875 0.875 -7.78125q0.875 -4.375 2.59375 -7.5q1.734375 -3.140625 4.109375 -3.140625q1.34375 0 2.109375 1.25q0.78125 1.234375 0.78125 3.5625q0 3.328125 -1.859375 7.734375q-1.84375 4.390625 -5.0 8.703125q0.1875 1.140625 0.640625 1.640625q0.453125 0.484375 1.171875 0.484375q1.15625 0 2.015625 -0.65625q0.875 -0.65625 2.21875 -2.265625q0.328125 -0.390625 0.75 -0.390625zm-3.4375 -17.296875q-0.640625 0 -1.453125 2.328125q-0.8125 2.3125 -1.4375 5.765625q-0.609375 3.4375 -0.671875 6.609375q1.984375 -3.28125 3.15625 -6.5625q1.1875 -3.296875 1.1875 -6.015625q0 -2.125 -0.78125 -2.125zm5.6280365 8.65625q-1.171875 0 -1.765625 -0.546875q-0.59375 -0.546875 -0.59375 -1.53125q0 -0.984375 0.765625 -1.640625q0.78125 -0.65625 1.921875 -0.65625q1.046875 0 1.6875 0.515625q0.640625 0.5 0.640625 1.421875q0 1.109375 -0.734375 1.78125q-0.71875 0.65625 -1.921875 0.65625zm-0.234375 15.03125q-1.8125 0 -2.640625 -1.28125q-0.828125 -1.296875 -0.828125 -3.421875q0 -1.265625 0.3125 -3.234375q0.328125 -1.96875 0.84375 -3.6875q0.25 -0.890625 0.671875 -1.21875q0.421875 -0.34375 1.34375 -0.34375q1.421875 0 1.421875 0.953125q0 0.703125 -0.53125 3.25q-0.671875 3.078125 -0.671875 4.171875q0 0.828125 0.21875 1.28125q0.234375 0.453125 0.765625 0.453125q0.5 0 1.25 -0.703125q0.765625 -0.703125 2.015625 -2.21875q0.34375 -0.390625 0.765625 -0.390625q0.359375 0 0.5625 0.34375q0.21875 0.328125 0.21875 0.921875q0 1.125 -0.53125 1.734375q-2.765625 3.390625 -5.1875 3.390625zm15.934906 -6.390625q0.375 0 0.578125 0.34375q0.203125 0.328125 0.203125 0.921875q0 1.125 -0.53125 1.734375q-1.03125 1.265625 -2.921875 2.328125q-1.890625 1.0625 -4.046875 1.0625q-2.9375 0 -4.5625 -1.59375q-1.625 -1.59375 -1.625 -4.375q0 -1.921875 0.8125 -3.59375q0.8125 -1.671875 2.25 -2.640625q1.453125 -0.984375 3.265625 -0.984375q1.625 0 2.609375 0.96875q0.984375 0.96875 0.984375 2.609375q0 1.9375 -1.390625 3.328125q-1.390625 1.375 -4.6875 2.1875q0.6875 1.296875 2.65625 1.296875q1.265625 0 2.875 -0.875q1.609375 -0.890625 2.78125 -2.328125q0.328125 -0.390625 0.75 -0.390625zm-7.046875 -4.046875q-1.046875 0 -1.765625 1.203125q-0.703125 1.203125 -0.703125 2.90625l0 0.0625q1.65625 -0.40625 2.609375 -1.1875q0.953125 -0.78125 0.953125 -1.8125q0 -0.53125 -0.296875 -0.84375q-0.296875 -0.328125 -0.796875 -0.328125zm7.5509186 10.4375q-1.0625 0 -1.5 -1.109375q-0.421875 -1.125 -0.421875 -3.59375q0 -3.640625 1.03125 -6.921875q0.25 -0.8125 0.828125 -1.1875q0.578125 -0.375 1.609375 -0.375q0.5625 0 0.78125 0.140625q0.21875 0.140625 0.21875 0.53125q0 0.453125 -0.421875 2.015625q-0.265625 1.125 -0.4375 1.96875q-0.171875 0.828125 -0.28125 2.0625q0.921875 -2.40625 2.0625 -3.921875q1.15625 -1.515625 2.25 -2.15625q1.109375 -0.640625 2.046875 -0.640625q1.8125 0 1.8125 1.8125q0 1.09375 -0.609375 3.953125q-0.53125 2.4375 -0.53125 3.21875q0 1.125 0.8125 1.125q0.546875 0 1.3125 -0.6875q0.78125 -0.6875 2.0625 -2.234375q0.34375 -0.390625 0.765625 -0.390625q0.359375 0 0.5625 0.34375q0.21875 0.328125 0.21875 0.921875q0 1.125 -0.53125 1.734375q-1.203125 1.484375 -2.59375 2.4375q-1.390625 0.953125 -3.140625 0.953125q-1.4375 0 -2.171875 -0.828125q-0.71875 -0.828125 -0.71875 -2.390625q0 -0.78125 0.390625 -2.796875q0.359375 -1.765625 0.359375 -2.4375q0 -0.453125 -0.296875 -0.453125q-0.375 0 -1.03125 0.9375q-0.65625 0.9375 -1.34375 2.484375q-0.6875 1.53125 -1.109375 3.25q-0.296875 1.3125 -0.703125 1.78125q-0.40625 0.453125 -1.28125 0.453125zm24.388062 -6.390625q0.375 0 0.578125 0.34375q0.203125 0.328125 0.203125 0.921875q0 1.125 -0.53125 1.734375q-1.203125 1.484375 -2.625 2.4375q-1.421875 0.953125 -3.28125 0.953125q-5.703125 0 -5.703125 -8.03125q0 -1.234375 0.078125 -2.5l-1.09375 0q-0.84375 0 -1.140625 -0.296875q-0.28125 -0.3125 -0.28125 -0.984375q0 -1.578125 1.25 -1.578125l1.609375 0q0.46875 -3.078125 1.4375 -5.625q0.984375 -2.546875 2.375 -4.046875q1.390625 -1.515625 2.984375 -1.515625q1.171875 0 1.84375 1.03125q0.671875 1.03125 0.671875 2.609375q0 4.328125 -3.640625 7.546875l3.140625 0q0.453125 0 0.640625 0.203125q0.203125 0.1875 0.203125 0.734375q0 1.921875 -3.171875 1.921875l-3.40625 0q-0.0625 1.40625 -0.0625 2.1875q0 2.90625 0.6875 4.09375q0.6875 1.171875 2.171875 1.171875q1.203125 0 2.125 -0.71875q0.921875 -0.734375 2.1875 -2.203125q0.328125 -0.390625 0.75 -0.390625zm-4.890625 -15.5q-0.421875 0 -0.953125 1.046875q-0.515625 1.046875 -0.984375 2.90625q-0.453125 1.859375 -0.75 4.140625q1.640625 -1.4375 2.46875 -3.203125q0.828125 -1.78125 0.828125 -3.25q0 -1.640625 -0.609375 -1.640625zm29.332169 15.5q0.375 0 0.578125 0.34375q0.21875 0.328125 0.21875 0.921875q0 1.09375 -0.53125 1.734375q-2.78125 3.390625 -5.921875 3.390625q-2.703125 0 -4.328125 -2.09375q-1.625 -2.109375 -1.625 -6.03125q0 -0.953125 0.078125 -1.90625q-1.84375 0.34375 -4.03125 0.515625q-1.453125 0.109375 -1.984375 0.140625q-0.5625 2.84375 -1.578125 7.0q-0.578125 2.4375 -2.234375 2.4375q-1.796875 0 -1.796875 -1.625q0 -0.375 0.140625 -1.015625q0.953125 -3.828125 1.515625 -6.5l-1.34375 0.0625q-0.921875 0 -1.34375 -0.3125q-0.421875 -0.328125 -0.421875 -1.0625q0 -0.921875 0.53125 -1.359375q0.53125 -0.4375 1.765625 -0.484375l1.484375 -0.0625q0.734375 -3.9375 0.734375 -6.015625q0 -1.3125 -0.390625 -1.78125q-0.390625 -0.484375 -1.046875 -0.484375q-1.953125 0 -4.421875 3.265625q-0.359375 0.484375 -0.8125 0.484375q-0.390625 0 -0.671875 -0.359375q-0.28125 -0.375 -0.28125 -0.921875q0 -0.875 0.703125 -1.859375q1.234375 -1.703125 3.109375 -2.8125q1.875 -1.109375 3.8125 -1.109375q1.8125 0 2.796875 1.25q1.0 1.25 1.0 3.875q0 2.328125 -0.671875 6.3125l2.75 -0.140625q1.765625 -0.09375 3.03125 -0.28125q0.5 -3.078125 1.53125 -5.765625q1.03125 -2.703125 2.578125 -4.375q1.546875 -1.6875 3.4375 -1.6875q1.40625 0 2.21875 1.109375q0.8125 1.109375 0.8125 2.90625q0 6.9375 -7.078125 9.625q-0.09375 1.125 -0.09375 2.328125q0 2.9375 0.71875 4.171875q0.734375 1.234375 2.0625 1.234375q1.140625 0 2.09375 -0.59375q0.953125 -0.609375 2.15625 -2.078125q0.34375 -0.390625 0.75 -0.390625zm-3.78125 -15.875q-0.609375 0 -1.296875 1.125q-0.6875 1.125 -1.3125 3.0625q-0.609375 1.921875 -0.96875 4.21875q2.234375 -0.921875 3.296875 -2.625q1.078125 -1.71875 1.078125 -4.40625q0 -0.640625 -0.234375 -1.0q-0.21875 -0.375 -0.5625 -0.375zm5.390976 15.234375q-0.703125 0 -1.09375 -0.421875q-0.390625 -0.4375 -0.390625 -1.234375q0 -0.75 0.390625 -1.140625q0.390625 -0.390625 1.09375 -0.390625l11.84375 0q1.453125 0 1.453125 1.53125q0 0.796875 -0.390625 1.234375q-0.375 0.421875 -1.0625 0.421875l-11.84375 0z" fill-rule="nonzero"/><path fill="#cfe2f3" d="m86.632545 204.48294l0 0c0 -5.563431 4.5100555 -10.073486 10.073494 -10.073486l16.377953 0l0 0l39.677162 0l82.50656 0c2.6716614 0 5.2338867 1.0613098 7.1230316 2.9504547c1.8891449 1.8891449 2.9504547 4.4513702 2.9504547 7.1230316l0 25.183731l0 0l0 15.1102295l0 0c0 5.563431 -4.5100555 10.073486 -10.073486 10.073486l-82.50656 0l-59.577118 17.425125l19.899956 -17.425125l-16.377953 0l0 0c-5.5634384 0 -10.073494 -4.5100555 -10.073494 -10.073486l0 0l0 -15.1102295l0 0z" fill-rule="evenodd"/><path stroke="#073763" stroke-width="2.0" stroke-linejoin="round" stroke-linecap="butt" d="m86.632545 204.48294l0 0c0 -5.563431 4.5100555 -10.073486 10.073494 -10.073486l16.377953 0l0 0l39.677162 0l82.50656 0c2.6716614 0 5.2338867 1.0613098 7.1230316 2.9504547c1.8891449 1.8891449 2.9504547 4.4513702 2.9504547 7.1230316l0 25.183731l0 0l0 15.1102295l0 0c0 5.563431 -4.5100555 10.073486 -10.073486 10.073486l-82.50656 0l-59.577118 17.425125l19.899956 -17.425125l-16.377953 0l0 0c-5.5634384 0 -10.073494 -4.5100555 -10.073494 -10.073486l0 0l0 -15.1102295l0 0z" fill-rule="evenodd"/><path fill="#073763" d="m139.36601 227.6193q-0.703125 0 -1.09375 -0.421875q-0.390625 -0.4375 -0.390625 -1.234375q0 -0.75 0.390625 -1.140625q0.390625 -0.390625 1.09375 -0.390625l11.84375 0q1.453125 0 1.453125 1.53125q0 0.796875 -0.390625 1.234375q-0.375 0.421875 -1.0625 0.421875l-11.84375 0zm28.156952 0.640625q0.375 0 0.578125 0.34375q0.203125 0.328125 0.203125 0.921875q0 1.125 -0.53125 1.734375q-1.03125 1.265625 -2.921875 2.328125q-1.890625 1.0625 -4.046875 1.0625q-2.9375 0 -4.5625 -1.59375q-1.625 -1.59375 -1.625 -4.375q0 -1.921875 0.8125 -3.59375q0.8125 -1.671875 2.25 -2.640625q1.453125 -0.984375 3.265625 -0.984375q1.625 0 2.609375 0.96875q0.984375 0.96875 0.984375 2.609375q0 1.9375 -1.390625 3.328125q-1.390625 1.375 -4.6875 2.1875q0.6875 1.296875 2.65625 1.296875q1.265625 0 2.875 -0.875q1.609375 -0.890625 2.78125 -2.328125q0.328125 -0.390625 0.75 -0.390625zm-7.046875 -4.046875q-1.046875 0 -1.765625 1.203125q-0.703125 1.203125 -0.703125 2.90625l0 0.0625q1.65625 -0.40625 2.609375 -1.1875q0.953125 -0.78125 0.953125 -1.8125q0 -0.53125 -0.296875 -0.84375q-0.296875 -0.328125 -0.796875 -0.328125zm16.175919 4.046875q0.359375 0 0.5625 0.34375q0.21875 0.328125 0.21875 0.921875q0 1.125 -0.53125 1.734375q-1.203125 1.484375 -2.625 2.4375q-1.40625 0.953125 -3.1875 0.953125q-2.46875 0 -3.65625 -2.234375q-1.1875 -2.25 -1.1875 -5.796875q0 -3.421875 0.875 -7.78125q0.875 -4.375 2.59375 -7.5q1.734375 -3.140625 4.109375 -3.140625q1.34375 0 2.109375 1.25q0.78125 1.234375 0.78125 3.5625q0 3.328125 -1.859375 7.734375q-1.84375 4.390625 -5.0 8.703125q0.1875 1.140625 0.640625 1.640625q0.453125 0.484375 1.171875 0.484375q1.15625 0 2.015625 -0.65625q0.875 -0.65625 2.21875 -2.265625q0.328125 -0.390625 0.75 -0.390625zm-3.4375 -17.296875q-0.640625 0 -1.453125 2.328125q-0.8125 2.3125 -1.4375 5.765625q-0.609375 3.4375 -0.671875 6.609375q1.984375 -3.28125 3.15625 -6.5625q1.1875 -3.296875 1.1875 -6.015625q0 -2.125 -0.78125 -2.125zm12.5655365 17.296875q0.359375 0 0.5625 0.34375q0.21875 0.328125 0.21875 0.921875q0 1.125 -0.53125 1.734375q-1.203125 1.484375 -2.625 2.4375q-1.40625 0.953125 -3.1875 0.953125q-2.46875 0 -3.65625 -2.234375q-1.1875 -2.25 -1.1875 -5.796875q0 -3.421875 0.875 -7.78125q0.875 -4.375 2.59375 -7.5q1.734375 -3.140625 4.109375 -3.140625q1.34375 0 2.109375 1.25q0.78125 1.234375 0.78125 3.5625q0 3.328125 -1.859375 7.734375q-1.84375 4.390625 -5.0 8.703125q0.1875 1.140625 0.640625 1.640625q0.453125 0.484375 1.171875 0.484375q1.15625 0 2.015625 -0.65625q0.875 -0.65625 2.21875 -2.265625q0.328125 -0.390625 0.75 -0.390625zm-3.4375 -17.296875q-0.640625 0 -1.453125 2.328125q-0.8125 2.3125 -1.4375 5.765625q-0.609375 3.4375 -0.671875 6.609375q1.984375 -3.28125 3.15625 -6.5625q1.1875 -3.296875 1.1875 -6.015625q0 -2.125 -0.78125 -2.125zm6.6905365 23.6875q-1.65625 0 -2.828125 -0.828125q-1.15625 -0.828125 -1.75 -2.171875q-0.578125 -1.34375 -0.578125 -2.875q0 -2.140625 0.796875 -3.796875q0.796875 -1.671875 2.171875 -2.609375q1.375 -0.9375 3.078125 -0.9375q1.65625 0 2.828125 0.828125q1.171875 0.828125 1.765625 2.171875q0.59375 1.34375 0.59375 2.875q0 2.140625 -0.8125 3.8125q-0.8125 1.65625 -2.203125 2.59375q-1.390625 0.9375 -3.0625 0.9375zm0.3125 -3.03125q0.953125 0 1.609375 -1.03125q0.65625 -1.03125 0.65625 -3.015625q0 -1.546875 -0.5625 -2.328125q-0.5625 -0.78125 -1.34375 -0.78125q-1.015625 0 -1.671875 1.015625q-0.65625 1.015625 -0.65625 3.046875q0 1.59375 0.5625 2.34375q0.5625 0.75 1.40625 0.75z" fill-rule="nonzero"/><path fill="#f4cccc" d="m302.83466 144.04199l0 0c0 -5.563431 4.5100403 -10.073486 10.073486 -10.073486l82.50656 0l0 0l39.677155 0l16.37796 0c2.6716614 0 5.2338867 1.0613098 7.123047 2.9504547c1.8891296 1.8891449 2.9504395 4.4513855 2.9504395 7.1230316l0 25.183731l0 0l0 15.1102295l0 0c0 5.563446 -4.5100403 10.073502 -10.073486 10.073502l-16.37796 0l22.823364 22.537811l-62.50052 -22.537811l-82.50656 0l0 0c-5.563446 0 -10.073486 -4.5100555 -10.073486 -10.073502l0 0l0 -15.1102295l0 0z" fill-rule="evenodd"/><path stroke="#660000" stroke-width="2.0" stroke-linejoin="round" stroke-linecap="butt" d="m302.83466 144.04199l0 0c0 -5.563431 4.5100403 -10.073486 10.073486 -10.073486l82.50656 0l0 0l39.677155 0l16.37796 0c2.6716614 0 5.2338867 1.0613098 7.123047 2.9504547c1.8891296 1.8891449 2.9504395 4.4513855 2.9504395 7.1230316l0 25.183731l0 0l0 15.1102295l0 0c0 5.563446 -4.5100403 10.073502 -10.073486 10.073502l-16.37796 0l22.823364 22.537811l-62.50052 -22.537811l-82.50656 0l0 0c-5.563446 0 -10.073486 -4.5100555 -10.073486 -10.073502l0 0l0 -15.1102295l0 0z" fill-rule="evenodd"/><path fill="#5b0f00" d="m355.17645 175.55334q-0.5 0.03125 -0.84375 -0.484375q-0.328125 -0.5 -0.296875 -0.828125q0.03125 -0.453125 0.25 -1.28125q0.21875 -0.84375 0.5 -1.71875q0.28125 -0.875 0.515625 -1.375q0.109375 -0.4375 0.203125 -0.78125q0.09375 -0.359375 0.125 -0.46875q0.078125 -0.125 0.265625 -0.59375q0.1875 -0.484375 0.296875 -0.921875q0.0625 -0.234375 0.234375 -0.859375q0.1875 -0.625 0.453125 -1.46875q0.265625 -0.84375 0.53125 -1.65625q0.265625 -0.8125 0.453125 -1.421875q0.203125 -0.609375 0.265625 -0.8125q0.21875 -0.34375 0.328125 -0.640625q0.109375 -0.3125 0.140625 -0.421875q0.171875 -0.109375 0.1875 -0.296875q0.03125 -0.1875 0.03125 -0.296875q0 -0.140625 0.09375 -0.21875q0.109375 -0.078125 0.109375 -0.203125q0.109375 -0.078125 0.140625 -0.015625q0.03125 0.046875 0.171875 -0.09375l0.140625 -0.953125l2.484375 -0.03125q-0.0625 0.34375 -0.171875 0.84375q-0.109375 0.484375 -0.53125 1.296875q-0.140625 0.5625 -0.328125 1.015625q-0.171875 0.4375 -0.140625 0.578125q-0.0625 0.046875 -0.25 0.5625q-0.171875 0.5 -0.421875 1.234375q-0.234375 0.71875 -0.46875 1.453125q-0.234375 0.71875 -0.421875 1.265625q-0.171875 0.546875 -0.234375 0.6875q-0.21875 0.453125 -0.5 1.328125q-0.28125 0.859375 -0.84375 2.34375q-0.21875 0.453125 -0.546875 1.34375q-0.3125 0.890625 -0.515625 1.625q-0.3125 1.09375 -0.546875 1.5625q-0.234375 0.484375 -0.4375 0.578125q-0.1875 0.09375 -0.421875 0.125zm0.265625 -16.46875q-1.15625 0.109375 -1.5625 -0.28125q-0.40625 -0.390625 -0.296875 -0.828125q0.09375 -0.34375 0.40625 -0.578125q0.328125 -0.234375 1.1875 -0.40625q0.3125 -0.0625 0.796875 -0.140625q0.5 -0.078125 0.953125 -0.171875q0.921875 -0.109375 1.515625 -0.1875q0.609375 -0.09375 1.25 -0.140625q0.640625 -0.0625 1.625 -0.125q0.8125 -0.046875 1.375 -0.078125q0.578125 -0.046875 0.578125 -0.046875q0.09375 0 0.59375 0.0625q0.5 0.046875 1.078125 0.125q0.59375 0.078125 0.875 0.203125q0.65625 0.140625 1.046875 0.5q0.390625 0.359375 0.5 0.84375q0.078125 0.328125 0 0.515625q-0.078125 0.171875 -0.3125 0.296875q-0.640625 0.1875 -1.046875 0.3125q-0.40625 0.125 -0.796875 -0.015625q-0.140625 -0.140625 -0.328125 -0.25q-0.171875 -0.109375 -0.609375 -0.171875q-0.4375 -0.078125 -1.359375 -0.140625q-0.78125 0.09375 -1.375 0.09375q-0.578125 0 -0.578125 0.140625l-1.65625 0.078125l-1.375 0.140625q-0.28125 0.03125 -0.78125 0.078125q-0.5 0.03125 -0.984375 0.078125q-0.46875 0.046875 -0.71875 0.09375zm13.542816 16.359375q-0.671875 0.078125 -1.03125 0.078125q-0.34375 0 -0.640625 -0.09375q-0.28125 -0.078125 -0.765625 -0.21875q-0.390625 -0.25 -0.890625 -0.703125q-0.484375 -0.4375 -0.625 -0.546875q0 -0.140625 -0.078125 -0.21875q-0.0625 -0.09375 -0.0625 -0.09375q-0.109375 0 -0.1875 -0.484375q-0.0625 -0.5 -0.046875 -1.171875q0.015625 -0.671875 0.078125 -1.25q0.078125 -0.59375 0.1875 -0.78125q0 -0.140625 0.0625 -0.34375q0.078125 -0.21875 0.078125 -0.359375q0 -0.484375 0.140625 -0.484375q0 0 0.0625 0q0.078125 -0.015625 0.078125 -0.109375q0 -0.171875 0.109375 -0.453125q0.125 -0.296875 0.171875 -0.546875q0.140625 -0.25 0.34375 -0.859375q0.21875 -0.625 0.40625 -1.15625q0.140625 -0.625 0.390625 -1.234375q0.265625 -0.625 0.375 -0.984375q0.390625 -0.671875 0.390625 -1.0q0.0625 -0.203125 0.375 -0.828125q0.328125 -0.640625 0.765625 -1.5q0.453125 -0.875 0.921875 -1.765625q0.484375 -0.890625 0.84375 -1.578125q0.375 -0.6875 0.53125 -0.9375q0.484375 -0.734375 0.921875 -1.015625q0.453125 -0.28125 0.703125 -0.28125q0.140625 0.0625 0.40625 0.3125q0.265625 0.25 0.5 0.546875q0.25 0.296875 0.28125 0.453125q0 0.0625 -0.203125 0.484375q-0.203125 0.421875 -0.515625 0.90625q-0.296875 0.484375 -0.609375 0.828125q-0.078125 0.109375 -0.09375 0.203125q-0.015625 0.078125 -0.015625 0.078125q0 0 -0.1875 0.328125q-0.171875 0.3125 -0.421875 0.78125q-0.25 0.453125 -0.453125 0.875q-0.1875 0.421875 -0.21875 0.625q-0.171875 0.1875 -0.46875 0.796875q-0.296875 0.59375 -0.578125 1.28125q-0.265625 0.6875 -0.5 1.1875q-0.21875 0.5 -0.28125 0.5625q0 0.140625 -0.015625 0.265625q-0.015625 0.125 -0.125 0.265625q-0.078125 0.203125 -0.296875 0.890625q-0.203125 0.671875 -0.5625 1.40625q-0.203125 0.84375 -0.484375 1.484375q-0.28125 0.640625 -0.421875 0.78125q-0.109375 0.28125 -0.109375 0.328125q0 0.03125 0.109375 0.015625q0.140625 -0.140625 0.140625 -0.046875q0 0.09375 -0.140625 0.328125q-0.109375 0.28125 -0.125 0.609375q-0.015625 0.3125 -0.015625 0.703125q0.03125 0.5625 0.296875 0.84375q0.265625 0.28125 0.859375 0.28125q0.953125 -0.03125 1.65625 -0.140625q0.71875 -0.125 1.21875 -0.234375q0.9375 -0.296875 1.609375 -0.171875q0.6875 0.125 0.96875 0.484375q0.171875 0.25 0.203125 0.609375q0.03125 0.34375 0.03125 0.484375q-0.09375 0.109375 -0.703125 0.34375q-0.59375 0.234375 -1.4375 0.484375q-0.828125 0.265625 -1.625 0.4375q-0.796875 0.1875 -1.28125 0.21875zm6.2717896 1.03125q-0.3125 0 -0.515625 -0.140625q-0.203125 -0.140625 -0.328125 -0.328125q0 -0.203125 0.109375 -0.34375q0.125 -0.140625 0.3125 -0.328125q0.3125 -0.28125 0.59375 -0.6875q0.28125 -0.40625 0.515625 -0.828125q0.234375 -0.421875 0.375 -0.671875q0.109375 -0.3125 0.21875 -0.734375q0.125 -0.421875 0.234375 -0.921875q0 -0.21875 0.015625 -0.390625q0.015625 -0.1875 0.125 -0.3125q0.21875 -0.1875 0.53125 -0.34375q0.328125 -0.15625 0.65625 0.109375q0.328125 0.265625 0.484375 1.328125q0.125 0.625 0 1.125q-0.109375 0.5 -0.46875 1.234375q-0.0625 0.1875 -0.421875 0.640625q-0.359375 0.453125 -0.71875 0.828125q-0.34375 0.375 -0.421875 0.375q-0.125 0 -0.203125 0.0625q-0.078125 0.078125 -0.203125 0.1875q-0.109375 0.109375 -0.328125 0.125q-0.21875 0.015625 -0.5625 0.015625zm4.9375 -9.75q-0.59375 0.203125 -0.984375 0.1875q-0.390625 -0.015625 -0.875 -0.34375q-0.5625 -0.5625 -0.359375 -1.140625q0.203125 -0.578125 1.0 -1.125q0.5625 -0.34375 0.828125 -0.359375q0.265625 -0.015625 0.796875 0.21875q0.9375 0.578125 0.828125 1.296875q-0.09375 0.71875 -1.234375 1.265625zm4.950287 10.3125q-0.53125 0.078125 -1.296875 -0.015625q-0.75 -0.09375 -1.609375 -0.328125q-0.453125 -0.140625 -0.640625 -0.34375q-0.171875 -0.1875 -0.59375 -0.71875q-0.28125 -0.421875 -0.359375 -0.953125q-0.0625 -0.53125 0.140625 -0.9375q0.21875 -0.421875 0.71875 -0.515625q0.21875 -0.046875 0.53125 0.109375q0.328125 0.140625 0.703125 0.375q0.578125 0.328125 1.25 0.671875q0.671875 0.359375 1.234375 0.28125q0.390625 -0.09375 0.9375 -0.109375q0.546875 -0.015625 1.0625 -0.09375q0.53125 -0.078125 0.828125 -0.3125q1.484375 -1.0 2.203125 -1.59375q0.734375 -0.609375 0.734375 -0.609375q0.0625 -0.109375 0.21875 -0.171875q0.15625 -0.078125 0.375 -0.171875q0.171875 -0.15625 0.53125 -0.53125q0.359375 -0.390625 0.703125 -0.75q0.359375 -0.359375 0.453125 -0.421875q0.046875 -0.25 0.09375 -0.40625q0.0625 -0.15625 0.0625 -0.328125q0.234375 -0.21875 0.609375 -0.921875q0.375 -0.71875 0.765625 -1.59375q0.390625 -0.890625 0.5625 -1.625q0.359375 -1.53125 0.25 -2.796875q-0.109375 -1.265625 -0.640625 -2.265625q-0.53125 -1.015625 -1.421875 -1.765625q-0.3125 -0.25 -0.84375 -0.546875q-0.53125 -0.296875 -1.09375 -0.5625q-0.5625 -0.265625 -1.0 -0.40625q-0.4375 -0.140625 -0.515625 -0.109375q-0.109375 0.03125 -0.4375 0.859375q-0.3125 0.828125 -0.78125 2.109375q-0.453125 1.28125 -0.984375 2.765625q-0.515625 1.46875 -0.984375 2.78125q-0.140625 0.53125 -0.359375 1.125q-0.203125 0.578125 -0.34375 1.015625q-0.140625 0.4375 -0.140625 0.578125q-0.3125 0.46875 -0.65625 1.453125q-0.328125 0.96875 -0.546875 2.796875q-0.25 0.953125 -0.359375 1.59375q-0.109375 0.625 -0.234375 0.59375q0 0 -0.03125 0.265625q-0.015625 0.265625 -0.109375 0.34375q0 0.171875 -0.34375 0.21875q-0.328125 0.0625 -0.78125 -0.140625q-0.4375 -0.1875 -0.828125 -0.75q-0.078125 -0.3125 -0.125 -0.90625q-0.046875 -0.609375 0.1875 -1.421875q0.125 -0.53125 0.375 -1.359375q0.265625 -0.84375 0.5625 -1.734375q0.3125 -0.90625 0.578125 -1.65625q0.265625 -0.765625 0.375 -1.125q0.203125 -0.46875 0.5625 -1.796875q0.234375 -0.71875 0.46875 -1.4375q0.234375 -0.734375 0.453125 -1.3125q0.234375 -0.578125 0.3125 -0.75q0.140625 -0.359375 0.34375 -1.1875q0.21875 -0.828125 0.671875 -1.890625l0.1875 -0.921875l-0.3125 -0.140625q-0.328125 0.109375 -0.515625 0.078125q-0.171875 -0.046875 -0.234375 -0.078125q-0.171875 0.0625 -0.4375 -0.09375q-0.265625 -0.15625 -0.484375 -0.40625q-0.203125 -0.25 -0.25 -0.421875q-0.0625 -0.109375 -0.078125 -0.28125q-0.015625 -0.1875 -0.015625 -0.1875q0.03125 -0.171875 0.484375 -0.34375q0.453125 -0.1875 1.15625 -0.359375q0.71875 -0.171875 1.53125 -0.25q0.8125 -0.09375 1.515625 -0.03125q0.71875 0.046875 1.78125 0.328125q1.0625 0.28125 1.828125 0.5625q0.890625 0.34375 1.921875 1.15625q1.046875 0.8125 1.890625 1.9375q0.859375 1.109375 1.140625 2.34375q0.078125 0.328125 0.15625 0.953125q0.09375 0.609375 0.109375 1.1875q0.015625 0.578125 -0.125 0.734375q-0.0625 0.125 -0.078125 0.28125q0 0.140625 0.109375 0.203125q-0.03125 0.078125 -0.203125 0.625q-0.171875 0.546875 -0.296875 0.9375q-0.0625 0.734375 -0.390625 1.6875q-0.3125 0.953125 -0.703125 1.8125q-0.375 0.84375 -0.65625 1.3125q-0.109375 0 -0.203125 0.046875q-0.09375 0.046875 0.015625 0.078125q0 0.140625 -0.3125 0.53125q-0.109375 0.078125 -0.34375 0.40625q-0.234375 0.3125 -0.375 0.421875q-0.03125 0.203125 -0.171875 0.328125q-0.140625 0.125 -0.25 0.125q0 0 -0.046875 0q-0.046875 0 -0.046875 0.109375q-0.21875 0.34375 -0.75 0.875q-0.53125 0.53125 -1.203125 1.09375q-0.671875 0.5625 -1.34375 1.03125q-0.671875 0.484375 -1.234375 0.703125q-0.28125 0.1875 -0.59375 0.3125q-0.296875 0.140625 -0.578125 0.265625q-0.140625 0.125 -0.8125 0.203125q-0.671875 0.078125 -1.421875 0.140625q-0.734375 0.0625 -1.15625 0.140625zm14.279816 -2.046875q0 0.140625 -0.140625 0.015625q-0.140625 -0.125 -0.453125 -0.34375q-0.25 -0.25 -0.59375 -0.640625q-0.328125 -0.40625 -0.296875 -0.9375q0.140625 -0.640625 0.5 -1.875q0.359375 -1.25 0.875 -2.625q0.046875 -0.53125 0.171875 -0.890625q0.125 -0.375 0.125 -0.375q0.03125 -0.046875 0.109375 -0.171875q0.09375 -0.140625 0.265625 -0.1875q0.140625 -0.109375 0.109375 -0.4375q-0.03125 -0.328125 -0.0625 -0.40625q0.125 -0.671875 0.515625 -1.828125q0.390625 -1.171875 0.921875 -2.46875q0.53125 -1.296875 1.0 -2.421875q0.140625 -0.25 0.25 -0.484375q0.125 -0.25 0.125 -0.25q-0.09375 -0.109375 -0.203125 -0.21875q-0.109375 -0.109375 -0.25 -0.3125q-0.21875 -0.296875 -0.328125 -0.671875q-0.09375 -0.390625 0.1875 -0.6875q0.078125 -0.140625 0.3125 -0.359375q0.25 -0.234375 0.53125 -0.4375q0.640625 -0.359375 1.265625 -0.5625q0.640625 -0.21875 1.140625 -0.078125q0.890625 0.03125 1.34375 0.140625q0.46875 0.109375 0.75 0.3125q0.171875 0.109375 0.296875 0.171875q0.125 0.046875 0.34375 0.046875q0.484375 0.0625 1.125 0.359375q0.640625 0.28125 1.140625 0.59375q0.515625 0.3125 0.59375 0.421875q0.5625 0.46875 0.984375 1.28125q0.421875 0.8125 0.5 1.875q0 0.65625 -0.0625 1.140625q-0.046875 0.484375 -0.25 0.953125q-0.1875 0.46875 -0.640625 1.078125q-0.84375 1.3125 -2.09375 2.609375q-1.234375 1.28125 -3.140625 2.34375q-0.046875 0.109375 -0.125 0.234375q-0.0625 0.125 -0.0625 0.125q0 0.234375 0.28125 0.59375q0.296875 0.359375 0.75 0.765625q0.453125 0.40625 0.9375 0.8125q0.484375 0.390625 0.890625 0.6875q0.40625 0.28125 0.609375 0.390625q0.359375 -0.109375 0.578125 -0.09375q0.234375 0.015625 0.34375 0.21875q0.109375 0.1875 0.140625 0.65625q-0.03125 0.375 -0.203125 0.71875q-0.15625 0.328125 -0.25 0.375q-0.21875 0.171875 -0.40625 0.390625q-0.171875 0.234375 -0.4375 0.28125q-0.25 0.0625 -0.6875 -0.25q-1.265625 -0.390625 -2.265625 -1.484375q-0.984375 -1.09375 -2.15625 -2.34375q-0.265625 -0.3125 -0.4375 -0.4375q-0.15625 -0.125 -0.359375 -0.125q-0.1875 0 -0.578125 0.078125q-0.234375 0.03125 -0.453125 -0.109375q-0.203125 -0.140625 -0.421875 -0.359375q-0.078125 -0.140625 -0.203125 -0.171875q-0.125 -0.03125 -0.21875 0.140625q-0.046875 0.171875 -0.203125 0.578125q-0.15625 0.40625 -0.3125 0.796875q-0.15625 0.390625 -0.296875 0.609375q0.0625 0.25 -0.140625 1.078125q-0.1875 0.828125 -0.5 1.71875q-0.078125 0.234375 -0.25 0.40625q-0.171875 0.1875 -0.25 0.078125q-0.109375 -0.140625 -0.1875 -0.140625q-0.0625 0 -0.09375 0.109375zm5.125 -8.09375q0.8125 -0.25 1.609375 -0.765625q0.796875 -0.515625 1.5 -1.234375q0.703125 -0.734375 1.140625 -1.546875q0.234375 -0.171875 0.421875 -0.546875q0.203125 -0.375 0.34375 -0.46875q0.25 -0.3125 0.34375 -0.46875q0.09375 -0.171875 -0.046875 -0.421875q0 -0.234375 0.0625 -0.4375q0.078125 -0.203125 0.140625 -0.40625q0.140625 -0.390625 0.015625 -0.6875q-0.125 -0.3125 -0.828125 -0.71875q-0.25 -0.15625 -0.515625 -0.28125q-0.265625 -0.125 -0.5625 -0.25q-0.296875 -0.140625 -0.65625 -0.296875q-0.453125 0 -0.921875 -0.203125q-0.453125 -0.21875 -0.703125 -0.1875q-0.140625 0.015625 -0.265625 0.3125q-0.125 0.296875 -0.265625 0.828125q-0.109375 0.453125 -0.265625 0.8125q-0.15625 0.34375 -0.375 0.453125q-0.03125 0.109375 -0.265625 0.78125q-0.21875 0.671875 -0.53125 1.578125q-0.296875 0.90625 -0.609375 1.828125q-0.3125 0.90625 -0.515625 1.546875q-0.1875 0.640625 -0.1875 0.75q0 0.0625 0.1875 0.203125q0.1875 0.140625 0.3125 0.171875q0 0 0.0625 -0.046875q0.0625 -0.0625 0.109375 -0.046875l0.625 0.3125l0.640625 -0.5625zm10.615936 2.65625q-0.796875 0.140625 -1.25 -0.65625q-0.4375 -0.796875 0.0625 -2.8125q0.171875 -0.328125 0.28125 -0.640625q0.109375 -0.328125 0.109375 -0.53125q0.125 -0.359375 0.296875 -0.84375q0.1875 -0.5 0.375 -0.9375q0.203125 -0.4375 0.28125 -0.578125q0.125 0 0.25 -0.1875q0.125 -0.203125 0.125 -0.390625q0 -0.21875 0.09375 -0.5q0.09375 -0.28125 0.203125 -0.390625q0 -0.140625 0.109375 -0.3125q0.125 -0.171875 0.125 -0.28125q0 -0.109375 0.0625 -0.1875q0.078125 -0.09375 0.078125 -0.203125q0.25 -0.453125 0.65625 -1.328125q0.40625 -0.890625 0.8125 -1.859375q0.40625 -0.984375 0.6875 -1.734375q0.28125 -0.765625 0.28125 -0.9375q0.046875 -0.21875 0.15625 -0.40625q0.109375 -0.203125 0.34375 -0.15625q0.109375 -0.078125 0.328125 -0.09375q0.234375 -0.015625 0.34375 -0.015625q0 0 0.25 0.125q0.25 0.109375 0.453125 0.328125q0.21875 0.1875 0.25 0.53125q0.03125 0.328125 0.03125 0.671875q-0.03125 0.53125 -0.40625 1.203125q-0.359375 0.671875 -0.8125 1.484375q-0.265625 0.53125 -0.53125 1.015625q-0.265625 0.46875 -0.265625 0.578125q0 0.109375 -0.125 0.34375q-0.109375 0.21875 -0.25 0.5625q-0.171875 0.265625 -0.328125 0.671875q-0.140625 0.390625 -0.265625 0.71875q-0.109375 0.3125 -0.109375 0.390625q-0.015625 0.109375 -0.0625 0.234375q-0.046875 0.109375 -0.15625 0.21875q-0.109375 0 -0.125 0.15625q-0.015625 0.15625 -0.015625 0.15625q0 0.109375 -0.125 0.515625q-0.125 0.40625 -0.40625 0.96875q-0.53125 1.484375 -0.765625 2.359375q-0.21875 0.875 -0.265625 1.5q-0.0625 0.671875 -0.3125 0.90625q-0.25 0.234375 -0.46875 0.34375zm-1.484375 4.34375q-0.59375 0.234375 -0.984375 0.21875q-0.390625 -0.015625 -0.875 -0.390625q-0.546875 -0.546875 -0.375 -1.125q0.1875 -0.578125 1.0 -1.109375q0.5625 -0.359375 0.828125 -0.375q0.265625 -0.015625 0.796875 0.203125q0.953125 0.59375 0.828125 1.3125q-0.109375 0.703125 -1.21875 1.265625z" fill-rule="nonzero"/></g></svg>